<svg width="154" height="32" viewBox="0 0 154 32" fill="none" xmlns="http://www.w3.org/2000/svg">
<path d="M49.3931 13.0195H46.4379C46.3839 12.6372 46.2737 12.2976 46.1072 12.0007C45.9408 11.6993 45.7272 11.4429 45.4663 11.2315C45.2054 11.0201 44.904 10.8582 44.5621 10.7457C44.2248 10.6333 43.8582 10.5771 43.4624 10.5771C42.7472 10.5771 42.1242 10.7547 41.5934 11.1101C41.0626 11.4609 40.651 11.9737 40.3587 12.6484C40.0663 13.3187 39.9201 14.1328 39.9201 15.0909C39.9201 16.076 40.0663 16.9036 40.3587 17.5739C40.6555 18.2441 41.0694 18.7501 41.6001 19.092C42.1309 19.4338 42.7449 19.6048 43.4421 19.6048C43.8335 19.6048 44.1955 19.553 44.5284 19.4496C44.8658 19.3461 45.1649 19.1954 45.4258 18.9975C45.6867 18.7951 45.9026 18.55 46.0735 18.2621C46.2489 17.9742 46.3704 17.6458 46.4379 17.277L49.3931 17.2905C49.3166 17.9247 49.1255 18.5365 48.8196 19.1257C48.5182 19.7105 48.1112 20.2345 47.5984 20.6978C47.0901 21.1566 46.4828 21.521 45.7766 21.7908C45.0749 22.0562 44.281 22.1889 43.3949 22.1889C42.1624 22.1889 41.0604 21.91 40.0888 21.3523C39.1217 20.7945 38.357 19.9871 37.7947 18.93C37.237 17.873 36.9581 16.5933 36.9581 15.0909C36.9581 13.584 37.2415 12.3021 37.8082 11.245C38.375 10.188 39.1442 9.38281 40.1158 8.82955C41.0874 8.27178 42.1804 7.9929 43.3949 7.9929C44.1955 7.9929 44.9377 8.10535 45.6214 8.33026C46.3097 8.55516 46.9192 8.88352 47.4499 9.31534C47.9807 9.74266 48.4125 10.2667 48.7454 10.8874C49.0827 11.5082 49.2987 12.2189 49.3931 13.0195ZM51.4341 22V11.6364H54.2207V13.4446H54.3287C54.5176 12.8014 54.8347 12.3156 55.28 11.9872C55.7253 11.6544 56.2381 11.4879 56.8184 11.4879C56.9623 11.4879 57.1175 11.4969 57.2839 11.5149C57.4503 11.5329 57.5965 11.5576 57.7225 11.5891V14.1396C57.5875 14.0991 57.4009 14.0631 57.1625 14.0316C56.9241 14.0001 56.7059 13.9844 56.508 13.9844C56.0852 13.9844 55.7073 14.0766 55.3745 14.261C55.0461 14.4409 54.7852 14.6928 54.5918 15.0167C54.4029 15.3406 54.3084 15.7139 54.3084 16.1367V22H51.4341ZM63.4491 22.2024C62.3831 22.2024 61.4655 21.9865 60.6963 21.5547C59.9316 21.1184 59.3424 20.5021 58.9285 19.706C58.5147 18.9053 58.3078 17.9585 58.3078 16.8654C58.3078 15.7994 58.5147 14.8638 58.9285 14.0586C59.3424 13.2534 59.9249 12.6259 60.676 12.1761C61.4317 11.7263 62.3179 11.5014 63.3344 11.5014C64.0181 11.5014 64.6546 11.6116 65.2439 11.832C65.8376 12.0479 66.3549 12.3741 66.7957 12.8104C67.241 13.2467 67.5874 13.7955 67.8348 14.4567C68.0822 15.1134 68.2059 15.8826 68.2059 16.7642V17.5536H59.4548V15.7724H65.5003C65.5003 15.3585 65.4103 14.992 65.2304 14.6726C65.0505 14.3532 64.8008 14.1036 64.4814 13.9237C64.1666 13.7392 63.8 13.647 63.3817 13.647C62.9453 13.647 62.5585 13.7482 62.2211 13.9506C61.8883 14.1486 61.6274 14.4162 61.4385 14.7536C61.2496 15.0864 61.1528 15.4575 61.1483 15.8668V17.5604C61.1483 18.0732 61.2428 18.5162 61.4317 18.8896C61.6251 19.2629 61.8973 19.5508 62.2481 19.7532C62.599 19.9556 63.0151 20.0568 63.4964 20.0568C63.8157 20.0568 64.1081 20.0118 64.3735 19.9219C64.6389 19.8319 64.866 19.697 65.055 19.517C65.2439 19.3371 65.3878 19.1167 65.4868 18.8558L68.1452 19.0312C68.0102 19.67 67.7336 20.2277 67.3153 20.7045C66.9014 21.1768 66.3662 21.5457 65.7094 21.8111C65.0572 22.072 64.3038 22.2024 63.4491 22.2024ZM76.5386 15.1854V17.4659H70.2368V15.1854H76.5386ZM81.4236 22H78.2929L83.0631 8.18182H86.828L91.5915 22H88.4608L84.9996 11.3395H84.8916L81.4236 22ZM81.2279 16.5685H88.6228V18.8491H81.2279V16.5685ZM96.075 16.0085V22H93.2007V11.6364H95.9401V13.4648H96.0615C96.2909 12.8621 96.6755 12.3853 97.2153 12.0344C97.7551 11.6791 98.4095 11.5014 99.1787 11.5014C99.8984 11.5014 100.526 11.6589 101.061 11.9737C101.596 12.2886 102.013 12.7384 102.309 13.3232C102.606 13.9034 102.755 14.5961 102.755 15.4013V22H99.8804V15.9141C99.8849 15.2798 99.723 14.785 99.3946 14.4297C99.0663 14.0698 98.6142 13.8899 98.0384 13.8899C97.6516 13.8899 97.3097 13.9731 97.0129 14.1396C96.7205 14.306 96.4911 14.5489 96.3247 14.8683C96.1627 15.1831 96.0795 15.5632 96.075 16.0085ZM109.689 26.1023C108.758 26.1023 107.96 25.9741 107.294 25.7177C106.633 25.4658 106.106 25.1217 105.715 24.6854C105.324 24.2491 105.07 23.7588 104.953 23.2145L107.611 22.8569C107.692 23.0638 107.82 23.2572 107.996 23.4371C108.171 23.6171 108.403 23.761 108.691 23.869C108.983 23.9814 109.338 24.0376 109.757 24.0376C110.382 24.0376 110.897 23.8847 111.302 23.5788C111.711 23.2775 111.916 22.7714 111.916 22.0607V20.1648H111.794C111.668 20.4527 111.479 20.7248 111.227 20.9812C110.976 21.2376 110.652 21.4467 110.256 21.6087C109.86 21.7706 109.388 21.8516 108.839 21.8516C108.061 21.8516 107.352 21.6716 106.714 21.3118C106.079 20.9474 105.573 20.3919 105.195 19.6452C104.822 18.8941 104.635 17.945 104.635 16.7979C104.635 15.6239 104.827 14.6433 105.209 13.8562C105.591 13.069 106.1 12.4798 106.734 12.0884C107.373 11.6971 108.072 11.5014 108.832 11.5014C109.412 11.5014 109.898 11.6004 110.29 11.7983C110.681 11.9917 110.996 12.2346 111.234 12.527C111.477 12.8149 111.664 13.0982 111.794 13.3771H111.902V11.6364H114.756V22.1012C114.756 22.9828 114.54 23.7205 114.108 24.3143C113.677 24.908 113.078 25.3533 112.314 25.6502C111.554 25.9516 110.679 26.1023 109.689 26.1023ZM109.75 19.6925C110.213 19.6925 110.604 19.5778 110.924 19.3484C111.248 19.1145 111.495 18.7816 111.666 18.3498C111.841 17.9135 111.929 17.3917 111.929 16.7844C111.929 16.1772 111.844 15.6509 111.673 15.2056C111.502 14.7558 111.254 14.4072 110.931 14.1598C110.607 13.9124 110.213 13.7887 109.75 13.7887C109.278 13.7887 108.879 13.9169 108.556 14.1733C108.232 14.4252 107.987 14.776 107.82 15.2259C107.654 15.6757 107.57 16.1952 107.57 16.7844C107.57 17.3827 107.654 17.9 107.82 18.3363C107.991 18.7681 108.236 19.1032 108.556 19.3416C108.879 19.5755 109.278 19.6925 109.75 19.6925ZM123.689 17.5874V11.6364H126.564V22H123.804V20.1175H123.696C123.462 20.7248 123.073 21.2128 122.529 21.5817C121.989 21.9505 121.33 22.1349 120.552 22.1349C119.859 22.1349 119.25 21.9775 118.724 21.6626C118.197 21.3478 117.786 20.9002 117.489 20.32C117.196 19.7397 117.048 19.0447 117.044 18.2351V11.6364H119.918V17.7223C119.922 18.334 120.086 18.8176 120.41 19.1729C120.734 19.5283 121.168 19.706 121.713 19.706C122.059 19.706 122.383 19.6272 122.684 19.4698C122.985 19.3079 123.228 19.0695 123.413 18.7546C123.602 18.4397 123.694 18.0507 123.689 17.5874ZM131.737 8.18182V22H128.863V8.18182H131.737ZM136.995 22.1957C136.334 22.1957 135.744 22.081 135.227 21.8516C134.71 21.6177 134.3 21.2736 133.999 20.8192C133.702 20.3604 133.554 19.7892 133.554 19.1055C133.554 18.5297 133.66 18.0462 133.871 17.6548C134.082 17.2635 134.37 16.9486 134.735 16.7102C135.099 16.4718 135.513 16.2919 135.976 16.1705C136.444 16.049 136.934 15.9635 137.447 15.9141C138.05 15.8511 138.535 15.7926 138.904 15.7386C139.273 15.6802 139.541 15.5947 139.707 15.4822C139.874 15.3698 139.957 15.2034 139.957 14.983V14.9425C139.957 14.5152 139.822 14.1845 139.552 13.9506C139.287 13.7167 138.909 13.5998 138.419 13.5998C137.901 13.5998 137.49 13.7145 137.184 13.9439C136.878 14.1688 136.675 14.4522 136.577 14.794L133.918 14.5781C134.053 13.9484 134.318 13.4041 134.714 12.9453C135.11 12.482 135.621 12.1267 136.246 11.8793C136.876 11.6274 137.604 11.5014 138.432 11.5014C139.008 11.5014 139.559 11.5689 140.085 11.7038C140.616 11.8388 141.086 12.0479 141.495 12.3313C141.909 12.6147 142.235 12.979 142.474 13.4244C142.712 13.8652 142.831 14.3937 142.831 15.0099V22H140.105V20.5629H140.024C139.858 20.8867 139.635 21.1723 139.356 21.4197C139.077 21.6626 138.742 21.8538 138.351 21.9933C137.96 22.1282 137.508 22.1957 136.995 22.1957ZM137.818 20.212C138.241 20.212 138.614 20.1288 138.938 19.9624C139.262 19.7914 139.516 19.562 139.7 19.2741C139.885 18.9863 139.977 18.6602 139.977 18.2958V17.196C139.887 17.2545 139.763 17.3085 139.606 17.358C139.453 17.4029 139.28 17.4457 139.086 17.4862C138.893 17.5221 138.7 17.5559 138.506 17.5874C138.313 17.6143 138.137 17.6391 137.98 17.6616C137.643 17.7111 137.348 17.7898 137.096 17.8977C136.844 18.0057 136.648 18.1519 136.509 18.3363C136.37 18.5162 136.3 18.7411 136.3 19.011C136.3 19.4023 136.442 19.7015 136.725 19.9084C137.013 20.1108 137.377 20.212 137.818 20.212ZM145.061 22V11.6364H147.848V13.4446H147.956C148.145 12.8014 148.462 12.3156 148.907 11.9872C149.352 11.6544 149.865 11.4879 150.445 11.4879C150.589 11.4879 150.744 11.4969 150.911 11.5149C151.077 11.5329 151.223 11.5576 151.349 11.5891V14.1396C151.214 14.0991 151.028 14.0631 150.789 14.0316C150.551 14.0001 150.333 13.9844 150.135 13.9844C149.712 13.9844 149.334 14.0766 149.001 14.261C148.673 14.4409 148.412 14.6928 148.219 15.0167C148.03 15.3406 147.935 15.7139 147.935 16.1367V22H145.061Z" fill="white"/>
<rect y="16" width="15" height="15" rx="7.5" fill="#465FFF"/>
<rect x="17" y="16" width="15" height="15" rx="7.5" fill="#465FFF"/>
<rect x="8.5" y="1" width="15" height="15" rx="7.5" fill="#465FFF"/>
</svg>
